<?xml version="1.0" encoding="utf-8"?>
<!-- Generator: Adobe Illustrator 22.1.0, SVG Export Plug-In . SVG Version: 6.00 Build 0)  -->
<svg version="1.1" xmlns="http://www.w3.org/2000/svg" xmlns:xlink="http://www.w3.org/1999/xlink" x="0px" y="0px"
	 viewBox="0 0 640 572" style="enable-background:new 0 0 640 572;" xml:space="preserve">
<style type="text/css">
	.st0{fill:none;}
</style>
<g id="table-1">
	<a xlink:href=""><polygon class="st0" points="23.7,278.7 27.7,278.7 27.7,246.7 101.7,246.7 101.7,278.7 105.7,278.7 105.7,286 133,286 133,310.7
	105.7,310.7 105,318.7 101,318.7 101,349.3 29.7,349.3 29.7,318 23.7,318 	"/></a>
</g>
<g id="table-2">
	<a xlink:href=""><polygon class="st0" points="23.7,394.7 27.7,394.7 27.7,364 101.7,364 101.7,394.7 105,394.7 105,403.3 133,403.3 133,428.7
	105.7,428.7 105.7,434 101,434 101,466.7 27.7,466.7 27.7,435.3 23.7,434 	"/></a>
</g>
<g id="table-3">
	<a xlink:href=""><polygon class="st0" points="213,432.7 219.7,382 246.3,382 252.3,432.7 245.7,480 221,480 	"/></a>
</g>
<g id="table-4">
	<a xlink:href=""><polygon class="st0" points="294.3,431 303,382 325.7,382 331.7,431 325,484.7 300.3,484.7 	"/></a>
</g>
<g id="table-5">
	<a xlink:href=""><polygon class="st0" points="379,310 365.7,360 372.3,377.3 399,403.3 415,410 430.3,404 469.7,372.7 469.7,349.3 452.3,310 	"/></a>
</g>
<g id="table-6">
	<a xlink:href=""><polygon class="st0" points="377,520 383,504.7 417.7,470 433.7,463.3 447.7,469.3 485,505.3 489.7,520 483,536 433.3,547.3
	383.7,535.3 	"/></a>
</g>
<g id="table-7">
	<a xlink:href=""><polygon class="st0" points="547.7,368.7 516.3,399.3 511,410 511,492.7 547.7,523.3 561.7,528 573,524 609,494.7 609,415.3
	605,400.7 574.3,368.7 	"/></a>
</g>
</svg>
